<svg xmlns="http://www.w3.org/2000/svg" width="293.876" height="46.036" viewBox="0 0 293.876 46.036"><g id="Group_78" data-name="Group 78" transform="translate(-5.272 -67.933)"><g id="Group_51" data-name="Group 51" transform="translate(5.272 67.933)"><path id="Path_719" data-name="Path 719" d="M16.979,95.442l6.411-11.1-3.979-6.89L17.536,74.2,5.272,95.442Z" transform="translate(-5.272 -61.716)" fill="#fff"></path><path id="Path_720" data-name="Path 720" d="M29.089,67.933l15.7,27.189,3.772,6.536H60.39L40.918,67.933Z" transform="translate(18.347 -67.933)" fill="#fff"></path><path id="Path_721" data-name="Path 721" d="M17.685,80.092,11.83,90.234l5.917,10.247L23.6,90.341Z" transform="translate(1.232 -55.875)" fill="#fff"></path><path id="Path_722" data-name="Path 722" d="M50.668,101.707l-19.281-33.4L25.471,78.553,38.81,101.659l.006.016,5.934,10.277Z" transform="translate(14.759 -67.561)" fill="#fff"></path><path id="Path_723" data-name="Path 723" d="M27.312,67.933H15.481l.793,1.374,5.342,9.247a.752.752,0,0,1,.034.07l13.478,23.35c.012.018.026.038.036.056L41.3,112.65,47.21,102.4Z" transform="translate(4.853 -67.933)" fill="#fff"></path><path id="Path_724" data-name="Path 724" d="M43.593,113.022l-6.1-10.562-.036-.056-19.68-34.1L11.862,78.56l13.334,23.1.022.044,6.543,11.321Z" transform="translate(1.264 -67.562)" fill="#fff"></path><path id="Path_725" data-name="Path 725" d="M53.454,85.614H41.62L35.7,95.859H47.537Z" transform="translate(24.908 -50.399)" fill="#fff"></path><path id="Path_726" data-name="Path 726" d="M23.025,95.859,17.108,85.614H5.272l5.917,10.245Z" transform="translate(-5.272 -50.399)" fill="#fff"></path></g><g id="Group_55" data-name="Group 55" transform="translate(95.661 91.694)"><g id="Group_54" data-name="Group 54"><g id="Group_52" data-name="Group 52"><path id="Path_727" data-name="Path 727" d="M66.531,82.2a5.178,5.178,0,0,0-1.046.116,6.772,6.772,0,0,0-2.8,1.281l-.576.466A7.069,7.069,0,0,0,57.1,82.2a7.979,7.979,0,0,0-1.309.116,5.782,5.782,0,0,0-.625.159V82.43l-4.511,1.751v15.1h4.511V85.947a4.147,4.147,0,0,1,1.209-.635,2.221,2.221,0,0,1,.725-.145c1.257,0,2.486.337,2.486,4.346V99.28h4.782V89.512a8.138,8.138,0,0,0-.572-2.954c.267-.2.54-.42.8-.611a4.245,4.245,0,0,1,1.2-.635,2.393,2.393,0,0,1,.729-.145c1.255,0,2.482.337,2.482,4.346V99.28H73.8V89.512C73.8,86,71.528,82.2,66.531,82.2Z" transform="translate(-50.655 -77.542)" fill="#fff"></path><path id="Path_728" data-name="Path 728" d="M69.822,82.2a5.3,5.3,0,0,0-1.046.116A6.821,6.821,0,0,0,65.982,83.6c-.123.1-.456.366-.783.629l-1.265,1.02,2.253,1.968.41-.317c.349-.269.52-.392.709-.526l.588-.426a4.277,4.277,0,0,1,1.2-.635,2.261,2.261,0,0,1,.727-.145c1.058,0,2.081.263,2.382,2.715-1.079.47-3.135,1.35-4.109,1.7-1.99.7-4.268,1.922-4.268,5.2,0,2.689,2.36,4.5,5.862,4.5H77.1V89.512C77.1,86,74.825,82.2,69.822,82.2Zm2.492,9.016v4.842H70c-1.046,0-1.587-.613-1.587-1.824,0-.89.3-1.319,1.259-1.818C70.192,92.134,71.4,91.606,72.314,91.219Z" transform="translate(-37.593 -77.542)" fill="#fff"></path><path id="Path_729" data-name="Path 729" d="M78.621,85.174c1.364,0,2.617,1.153,3.223,1.7l.679.6L84.038,85.7l.36-.488L83.95,84.8a8.7,8.7,0,0,0-4.842-2.563c-3.585-.4-6.509,1.573-6.824,4.493-.3,2.814,1.647,4.214,4.206,5.744l.191.116c1.076.683,2.689,1.709,2.689,2.651a1.531,1.531,0,0,1-1.52,1.611,8.721,8.721,0,0,1-3.838-1.163l-.49-.277L71.8,97.794l.58.351a11.994,11.994,0,0,0,4.989,1.643,7.95,7.95,0,0,0,.888.052c3.207,0,5.644-1.864,5.927-4.533.307-2.818-1.83-4.336-4.431-5.891l-.177-.116c-1.1-.693-2.478-1.569-2.478-2.506A1.538,1.538,0,0,1,78.621,85.174Z" transform="translate(-29.685 -77.564)" fill="#fff"></path><path id="Path_730" data-name="Path 730" d="M89.048,79.863v5.246a6.709,6.709,0,0,0-1.428-.47,5.311,5.311,0,0,0-1.054-.116,7,7,0,0,0-7.278,7.309v5.312h0v.89l.1-.016c.456,2.2,2.645,3.627,5.762,3.627H93.01v-.02h.779V79.863Zm-4.959,11.97c0-4.009,1.223-4.346,2.478-4.346a2.241,2.241,0,0,1,.727.145,4.163,4.163,0,0,1,1.209.635c.181.139.366.279.546.414V98.42H85.67q-1.58,0-1.581-1.826Z" transform="translate(-22.259 -79.863)" fill="#fff"></path><path id="Path_731" data-name="Path 731" d="M93.837,82.2a5.208,5.208,0,0,0-1.046.116,6.828,6.828,0,0,0-2.8,1.281c-.118.1-.452.366-.777.629l-1.263,1.02,2.247,1.968.412-.317c.351-.269.526-.392.711-.526l.592-.426a4.262,4.262,0,0,1,1.193-.635,2.324,2.324,0,0,1,.735-.145c1.056,0,2.077.263,2.38,2.715-1.081.47-3.137,1.35-4.111,1.7-1.988.7-4.266,1.922-4.266,5.2,0,2.689,2.354,4.5,5.862,4.5h7.409V89.512C101.111,86,98.834,82.2,93.837,82.2Zm2.486,9.016v4.842H94.006c-1.044,0-1.585-.613-1.585-1.824,0-.89.3-1.319,1.255-1.818C94.205,92.134,95.412,91.606,96.323,91.219Z" transform="translate(-13.779 -77.542)" fill="#fff"></path><path id="Path_732" data-name="Path 732" d="M100.792,90.409c0-4.633,1.508-5.168,2.639-5.168h4.374l3.175-3.029h-7.548c-4.925,0-7.582,4.222-7.582,8.2v8.8h4.943Z" transform="translate(-5.837 -77.535)" fill="#fff"></path></g><g id="Group_53" data-name="Group 53" transform="translate(99.817 3.549)"><path id="Path_733" data-name="Path 733" d="M188.825,81.645c-4.931,0-7.6,4.236-7.6,8.22,0,.129.018,4.119.018,6.923h-11.1c.006-.815.008-1.225.018-1.41h-.018V89.865c0-3.983-2.659-8.22-7.592-8.22a7.214,7.214,0,0,0-2.938.647,11.469,11.469,0,0,0-1.251.542c-4.949,2.669-13.314,7.224-13.314,7.224v-7.29h-4.673V96.788H127.836V89.865c0-3.983-2.665-8.22-7.59-8.22a8.577,8.577,0,0,0-3.782.757c-.5.3-.862.54-1.729,1.119a34.031,34.031,0,0,0-2.878,2.1l2.5,2.187s1.874-1.255,3.374-2.33a6.988,6.988,0,0,1,2.512-.787c1.127,0,2.631.538,2.631,5.178v5.513h0v1.41H111.934L108.867,99.8h87.509v-.623s.038-9.026.038-9.307C196.413,85.881,193.757,81.645,188.825,81.645ZM165.186,95.378v1.41h-20.14V93.549s11.428-6.234,15.169-8.305a4.177,4.177,0,0,1,2.334-.558c1.133,0,2.637.538,2.637,5.178Zm26.274,1.41h-5.308V89.865c0-4.641,1.528-5.178,2.673-5.178s2.635.538,2.635,5.178Z" transform="translate(-92.744 -81.645)" fill="#fff"></path><path id="Path_734" data-name="Path 734" d="M139.655,88.857c0-.106,0-.213,0-.317h0C139.655,88.7,139.655,88.93,139.655,88.857Z" transform="translate(-62.22 -74.807)" fill="#fff"></path><path id="Path_735" data-name="Path 735" d="M110.957,91c0,4.627-1.5,5.166-2.633,5.166h-4.376L100.772,99.2h7.552c4.923,0,7.58-4.226,7.58-8.2V82.211h-4.947Z" transform="translate(-100.772 -81.084)" fill="#fff"></path></g></g></g></g></svg>